#!OML:ASF F:\VICON\USERDATA\INSTALL\rory3\rory3.ASF
:FULLY-SPECIFIED
:DEGREES
1
root 4.81955 17.7253 -29.2298 -2.06042 0.843412 0.194261
lowerback 11.002 -1.80002 -1.0332
upperback 1.27722 -2.40674 2.08942
thorax -4.69726 -1.15272 3.12193
lowerneck -20.0224 -2.98611 -1.20289
upperneck 19.3432 -3.69122 -0.333519
head 9.42313 -1.84805 -0.427649
rclavicle 3.49364e-014 3.18055e-015
rhumerus -32.9217 -27.8084 -74.3384
rradius 20.7998
rwrist 10.2024
rhand -19.5397 21.4309
rfingers 7.12502
rthumb 6.78413 -8.44043
lclavicle 3.49364e-014 3.18055e-015
lhumerus -24.9934 -2.67223 83.7415
lradius 31.8904
lwrist 6.91618
lhand -27.9846 20.8815
lfingers 7.12502
lthumb -1.37108 50.8569
rfemur -28.1044 4.91165 21.9153
rtibia 28.2287
rfoot -2.37942 -3.96869
rtoes 8.30311
lfemur 12.0941 -4.61905 -25.4095
ltibia 32.768
lfoot -3.6198 -12.8239
ltoes -13.1918
2
root 4.79806 17.7652 -29.0187 -2.10314 0.776225 -0.17667
lowerback 11.1598 -1.75115 -0.74729
upperback 1.20504 -2.30025 2.19527
thorax -4.87404 -1.10126 3.06516
lowerneck -20.3221 -2.95199 -1.0173
upperneck 19.5448 -3.6593 -0.498733
head 9.54028 -1.83696 -0.518071
rclavicle -3.63279e-014 7.95139e-016
rhumerus -33.1812 -28.5606 -73.8613
rradius 20.5062
rwrist 11.0216
rhand -19.7896 20.9179
rfingers 7.12502
rthumb 6.54297 -8.96098
lclavicle -3.63279e-014 7.95139e-016
lhumerus -25.3619 -2.3183 83.8077
lradius 31.6712
lwrist 6.73816
lhand -28.8031 15.0006
lfingers 7.12502
lthumb -2.16153 44.9694
rfemur -27.5529 4.63924 22.6404
rtibia 28.6573
rfoot -2.31292 -3.5814
rtoes 10.4802
lfemur 11.2747 -3.70344 -24.5178
ltibia 35.0982
lfoot -1.13296 -14.8974
ltoes -22.5889
3
root 4.77471 17.7961 -28.8105 -2.16758 0.738481 -0.0965756
lowerback 11.5461 -1.78043 -1.12852
upperback 0.612517 -2.37179 2.34328
thorax -5.6874 -1.10793 3.48335
lowerneck -19.002 -2.86972 -1.54993
upperneck 19.6243 -3.46367 -0.270423
head 9.34506 -1.76481 -0.304971
rclavicle 2.127e-014 6.36111e-015
rhumerus -34.3793 -28.0185 -73.1132
rradius 20.4793
rwrist 11.0404
rhand -19.8625 20.4406
rfingers 7.12502
rthumb 6.47258 -9.4405
lclavicle 2.127e-014 6.36111e-015
lhumerus -26.9781 -1.86133 84.0607
lradius 31.7382
lwrist 6.84877
lhand -28.1722 14.0695
lfingers 7.12502
lthumb -1.55218 44.0436
rfemur -27.1031 4.65046 22.7758
rtibia 29.3197
rfoot -2.47587 -3.25118
rtoes 12.4082
lfemur 9.75565 -3.44015 -24.1879
ltibia 36.9095
lfoot 9.71927 -14.5633
ltoes -1.64102
4
root 4.75563 17.8177 -28.6089 -2.30752 0.894878 -0.162799
lowerback 11.6039 -1.6142 -0.938977
upperback 1.43761 -2.143 2.19396
thorax -4.87856 -1.02155 3.16031
lowerneck -22.416 -3.05703 -0.951398
upperneck 20.4091 -3.80862 -0.476057
head 10.226 -1.88638 -0.589305
rclavicle -2.71838e-014 2.3059e-014
rhumerus -32.8167 -29.6993 -73.6491
rradius 20.2317
rwrist 11.4361
rhand -19.4596 20.5178
rfingers 7.12502
rthumb 6.86145 -9.35103
lclavicle -2.71838e-014 2.3059e-014
lhumerus -25.3241 -2.25482 84.0728
lradius 31.4568
lwrist 7.17643
lhand -27.2076 19.1949
lfingers 7.12502
lthumb -0.62057 49.1737
rfemur -26.5091 4.48399 23.0456
rtibia 29.9285
rfoot -2.90883 -3.03912
rtoes 11.4693
lfemur 8.80853 -3.4421 -23.692
ltibia 39.0234
lfoot 12.5178 -15.4881
ltoes 3.44504
5
root 4.73723 17.8649 -28.4102 -2.48337 1.02494 -0.286896
lowerback 11.7306 -1.70899 -0.852317
upperback 1.26202 -2.25311 2.23548
thorax -5.12861 -1.07179 3.1825
lowerneck -21.4747 -3.01882 -0.958236
upperneck 20.0918 -3.74479 -0.554632
head 9.93987 -1.87252 -0.586029
rclavicle -8.39865e-015 1.82882e-014
rhumerus -33.2432 -29.0971 -73.6091
rradius 20.2658
rwrist 11.2176
rhand -19.2654 20.1599
rfingers 7.12502
rthumb 7.04901 -9.70275
lclavicle -8.39865e-015 1.82882e-014
lhumerus -26.1437 -2.23445 84.2108
lradius 31.4879
lwrist 7.53433
lhand -27.1587 22.7104
lfingers 7.12502
lthumb -0.573325 52.6894
rfemur -25.7951 4.37831 23.3805
rtibia 30.4168
rfoot -3.23359 -3.01984
rtoes 14.2333
lfemur 7.05215 -2.34535 -23.1001
ltibia 41.0162
lfoot 15.1206 -18.4068
ltoes -4.61618
6
root 4.72146 17.8624 -28.2195 -2.65008 0.963669 -0.545301
lowerback 11.7492 -1.68626 -0.515532
upperback 1.34203 -2.18341 2.17794
thorax -5.07392 -1.04605 2.91926
lowerneck -21.793 -2.87351 -0.773893
upperneck 20.1765 -3.62653 -0.448712
head 10.0261 -1.78888 -0.567817
rclavicle 2.12203e-014 -4.77083e-015
rhumerus -33.3234 -29.0198 -73.8204
rradius 20.3231
rwrist 10.9274
rhand -19.1556 20.1318
rfingers 7.12502
rthumb 7.15496 -9.72725
lclavicle 2.12203e-014 -4.77083e-015
lhumerus -26.4286 -2.31438 84.1686
lradius 31.4165
lwrist 7.50679
lhand -27.135 23.169
lfingers 7.12502
lthumb -0.550483 53.1481
rfemur -25.1678 4.53428 23.8385
rtibia 30.7872
rfoot -3.17695 -3.21582
rtoes 16.6166
lfemur 6.53106 -2.17265 -22.4662
ltibia 43.3747
lfoot 16.6593 -19.9839
ltoes -6.48521
7
root 4.70384 17.8862 -28.0314 -2.81075 0.642724 -0.968469
lowerback 11.6798 -1.52229 -0.0395576
upperback 1.67444 -1.91213 2.15096
thorax -4.71709 -0.927418 2.56835
lowerneck -22.081 -3.20375 -0.870545
upperneck 20.364 -4.10391 -0.238941
head 10.1529 -1.98775 -0.55652
rclavicle 7.60351e-015 -7.95139e-015
rhumerus -32.9463 -29.1681 -74.2298
rradius 20.3759
rwrist 10.6325
rhand -18.6074 20.9416
rfingers 7.12502
rthumb 7.68407 -8.89878
lclavicle 7.60351e-015 -7.95139e-015
lhumerus -26.0782 -2.67412 84.1652
lradius 31.3051
lwrist 7.34069
lhand -26.4736 24.5669
lfingers 7.12502
lthumb 0.0883016 54.5466
rfemur -24.4243 4.90165 24.5024
rtibia 30.9033
rfoot -3.35782 -3.3168
rtoes 17.6024
lfemur 5.02574 -2.06223 -21.6903
ltibia 45.6715
lfoot 21.2214 -18.6955
ltoes 5.64297
8
root 4.68853 17.9151 -27.8465 -2.82434 0.404366 -1.39354
lowerback 11.5766 -1.48989 0.409734
upperback 1.74675 -1.81293 2.20819
thorax -4.60064 -0.88687 2.35416
lowerneck -21.8643 -3.3418 -0.859858
upperneck 20.3443 -4.29073 -0.283625
head 10.1053 -2.07963 -0.597705
rclavicle 3.62782e-015 7.95139e-015
rhumerus -32.7445 -28.8736 -74.5078
rradius 20.3008
rwrist 10.3349
rhand -17.5577 22.4644
rfingers 7.12502
rthumb 8.69719 -7.33648
lclavicle 3.62782e-015 7.95139e-015
lhumerus -26.2822 -2.81631 84.2008
lradius 31.4481
lwrist 7.29997
lhand -26.0553 25.866
lfingers 7.12502
lthumb 0.492369 55.8452
rfemur -23.8286 5.15766 25.1733
rtibia 30.9742
rfoot -3.89301 -3.31081
rtoes 16.6326
lfemur 3.50215 -1.75196 -20.9139
ltibia 48.0465
lfoot 21.9223 -20.3044
ltoes -1.83384
